REM DIRINDEX 1\2\4\8,1\2\4\9,1\2\4\10,1\2\5\11,1\2\5\12,1\2\5\13,1\2\5\14,1\2\5\15,1\3\6\16,1\3\6\17,1\3\6\18,1\3\7\19,1\3\7\20,1\3\7\21,1\3\7\22,1\3\7\23
REM DIRNAME "folder01","folder02","folder03","folder04","folder05","folder06","folder07","folder08","folder09","folder10","folder11","folder12","folder13","folder14","folder15","folder16","folder17","folder18","folder19","folder20","folder21","folder22","folder23"
TITLE ""
FILE "LR_black_phrase_E_09.mp3" MP3
  TRACK 01 AUDIO
    TITLE "0:"
    INDEX 01 00:00:00
  TRACK 02 AUDIO
    TITLE "8:cjc171_02401"
    INDEX 01 00:00:14
  TRACK 03 AUDIO
    TITLE "0:"
    INDEX 01 00:01:41
  TRACK 04 AUDIO
    TITLE "9:cjc171_02402"
    INDEX 01 00:01:72
  TRACK 05 AUDIO
    TITLE "0:"
    INDEX 01 00:04:02
  TRACK 06 AUDIO
    TITLE "10:cjc171_02403"
    INDEX 01 00:04:55
  TRACK 07 AUDIO
    TITLE "0:"
    INDEX 01 00:06:60
  TRACK 08 AUDIO
    TITLE "8:cjc171_02404"
    INDEX 01 00:07:63
  TRACK 09 AUDIO
    TITLE "0:"
    INDEX 01 00:09:03
  TRACK 10 AUDIO
    TITLE "9:cjc171_02405"
    INDEX 01 00:09:33
  TRACK 11 AUDIO
    TITLE "0:"
    INDEX 01 00:11:18
  TRACK 12 AUDIO
    TITLE "10:cjc171_02406"
    INDEX 01 00:11:71
  TRACK 13 AUDIO
    TITLE "0:"
    INDEX 01 00:13:56
  TRACK 14 AUDIO
    TITLE "8:cjc171_02407"
    INDEX 01 00:14:57
  TRACK 15 AUDIO
    TITLE "0:"
    INDEX 01 00:16:03
  TRACK 16 AUDIO
    TITLE "9:cjc171_02408"
    INDEX 01 00:16:35
  TRACK 17 AUDIO
    TITLE "0:"
    INDEX 01 00:18:40
  TRACK 18 AUDIO
    TITLE "10:cjc171_02409"
    INDEX 01 00:19:19
  TRACK 19 AUDIO
    TITLE "0:"
    INDEX 01 00:21:28
  TRACK 20 AUDIO
    TITLE "8:cjc171_02410"
    INDEX 01 00:22:31
  TRACK 21 AUDIO
    TITLE "0:"
    INDEX 01 00:23:39
  TRACK 22 AUDIO
    TITLE "9:cjc171_02411"
    INDEX 01 00:23:72
  TRACK 23 AUDIO
    TITLE "0:"
    INDEX 01 00:26:18
  TRACK 24 AUDIO
    TITLE "10:cjc171_02412"
    INDEX 01 00:26:72
  TRACK 25 AUDIO
    TITLE "0:"
    INDEX 01 00:29:20
  TRACK 26 AUDIO
    TITLE "8:cjc171_02413"
    INDEX 01 00:30:25
  TRACK 27 AUDIO
    TITLE "0:"
    INDEX 01 00:31:44
  TRACK 28 AUDIO
    TITLE "9:cjc171_02414"
    INDEX 01 00:32:01
  TRACK 29 AUDIO
    TITLE "0:"
    INDEX 01 00:34:44
  TRACK 30 AUDIO
    TITLE "10:cjc171_02415"
    INDEX 01 00:35:24
  TRACK 31 AUDIO
    TITLE "0:"
    INDEX 01 00:37:72
  TRACK 32 AUDIO
    TITLE "8:cjc171_02416"
    INDEX 01 00:39:01
  TRACK 33 AUDIO
    TITLE "0:"
    INDEX 01 00:40:04
  TRACK 34 AUDIO
    TITLE "9:cjc171_02417"
    INDEX 01 00:40:31
  TRACK 35 AUDIO
    TITLE "0:"
    INDEX 01 00:42:13
  TRACK 36 AUDIO
    TITLE "10:cjc171_02418"
    INDEX 01 00:42:67
  TRACK 37 AUDIO
    TITLE "0:"
    INDEX 01 00:44:47
  TRACK 38 AUDIO
    TITLE "8:cjc171_02419"
    INDEX 01 00:45:52
  TRACK 39 AUDIO
    TITLE "0:"
    INDEX 01 00:47:14
  TRACK 40 AUDIO
    TITLE "9:cjc171_02420"
    INDEX 01 00:47:41
  TRACK 41 AUDIO
    TITLE "0:"
    INDEX 01 00:49:44
  TRACK 42 AUDIO
    TITLE "10:cjc171_02421"
    INDEX 01 00:50:26
  TRACK 43 AUDIO
    TITLE "0:"
    INDEX 01 00:52:31
  TRACK 44 AUDIO
    TITLE "8:cjc171_02422"
    INDEX 01 00:53:34
  TRACK 45 AUDIO
    TITLE "0:"
    INDEX 01 00:54:59
  TRACK 46 AUDIO
    TITLE "9:cjc171_02423"
    INDEX 01 00:55:15
  TRACK 47 AUDIO
    TITLE "0:"
    INDEX 01 00:57:18
  TRACK 48 AUDIO
    TITLE "10:cjc171_02424"
    INDEX 01 00:57:73
  TRACK 49 AUDIO
    TITLE "0:"
    INDEX 01 00:59:74
  TRACK 50 AUDIO
    TITLE "8:cjc171_02425"
    INDEX 01 01:01:04
  TRACK 51 AUDIO
    TITLE "0:"
    INDEX 01 01:02:09
  TRACK 52 AUDIO
    TITLE "9:cjc171_02426"
    INDEX 01 01:02:39
  TRACK 53 AUDIO
    TITLE "0:"
    INDEX 01 01:04:12
  TRACK 54 AUDIO
    TITLE "10:cjc171_02427"
    INDEX 01 01:04:67
  TRACK 55 AUDIO
    TITLE "0:"
    INDEX 01 01:06:39
  TRACK 56 AUDIO
    TITLE "8:cjc171_02428"
    INDEX 01 01:07:36
  TRACK 57 AUDIO
    TITLE "0:"
    INDEX 01 01:08:61
  TRACK 58 AUDIO
    TITLE "9:cjc171_02429"
    INDEX 01 01:09:15
  TRACK 59 AUDIO
    TITLE "0:"
    INDEX 01 01:11:55
  TRACK 60 AUDIO
    TITLE "10:cjc171_02430"
    INDEX 01 01:12:35
  TRACK 61 AUDIO
    TITLE "0:"
    INDEX 01 01:14:75
  TRACK 62 AUDIO
    TITLE "8:cjc171_02431"
    INDEX 01 01:15:73
  TRACK 63 AUDIO
    TITLE "0:"
    INDEX 01 01:17:33
  TRACK 64 AUDIO
    TITLE "9:cjc171_02432"
    INDEX 01 01:17:54
  TRACK 65 AUDIO
    TITLE "0:"
    INDEX 01 01:20:54
  TRACK 66 AUDIO
    TITLE "10:cjc171_02433"
    INDEX 01 01:21:30
  TRACK 67 AUDIO
    TITLE "0:"
    INDEX 01 01:24:33
  TRACK 68 AUDIO
    TITLE "8:cjc171_02434"
    INDEX 01 01:25:32
  TRACK 69 AUDIO
    TITLE "0:"
    INDEX 01 01:26:59
  TRACK 70 AUDIO
    TITLE "9:cjc171_02435"
    INDEX 01 01:27:07
  TRACK 71 AUDIO
    TITLE "0:"
    INDEX 01 01:29:45
  TRACK 72 AUDIO
    TITLE "10:cjc171_02436"
    INDEX 01 01:30:12
  TRACK 73 AUDIO
    TITLE "0:"
    INDEX 01 01:32:48
  TRACK 74 AUDIO
    TITLE "8:cjc171_02437"
    INDEX 01 01:33:41
  TRACK 75 AUDIO
    TITLE "0:"
    INDEX 01 01:34:64
  TRACK 76 AUDIO
    TITLE "9:cjc171_02438"
    INDEX 01 01:35:13
  TRACK 77 AUDIO
    TITLE "0:"
    INDEX 01 01:37:61
  TRACK 78 AUDIO
    TITLE "10:cjc171_02439"
    INDEX 01 01:38:35
  TRACK 79 AUDIO
    TITLE "0:"
    INDEX 01 01:40:75
  TRACK 80 AUDIO
    TITLE "8:cjc171_02440"
    INDEX 01 01:42:03
  TRACK 81 AUDIO
    TITLE "0:"
    INDEX 01 01:43:20
  TRACK 82 AUDIO
    TITLE "9:cjc171_02441"
    INDEX 01 01:43:42
  TRACK 83 AUDIO
    TITLE "0:"
    INDEX 01 01:45:15
  TRACK 84 AUDIO
    TITLE "10:cjc171_02442"
    INDEX 01 01:45:68
  TRACK 85 AUDIO
    TITLE "0:"
    INDEX 01 01:47:43
  TRACK 86 AUDIO
    TITLE "8:cjc171_02443"
    INDEX 01 01:48:45
  TRACK 87 AUDIO
    TITLE "0:"
    INDEX 01 01:49:62
  TRACK 88 AUDIO
    TITLE "9:cjc171_02444"
    INDEX 01 01:50:06
  TRACK 89 AUDIO
    TITLE "0:"
    INDEX 01 01:51:71
  TRACK 90 AUDIO
    TITLE "10:cjc171_02445"
    INDEX 01 01:52:41
  TRACK 91 AUDIO
    TITLE "0:"
    INDEX 01 01:54:30
  TRACK 92 AUDIO
    TITLE "8:cjc171_02446"
    INDEX 01 01:55:27
  TRACK 93 AUDIO
    TITLE "0:"
    INDEX 01 01:56:52
  TRACK 94 AUDIO
    TITLE "9:cjc171_02447"
    INDEX 01 01:56:68
  TRACK 95 AUDIO
    TITLE "0:"
    INDEX 01 01:58:63
  TRACK 96 AUDIO
    TITLE "10:cjc171_02448"
    INDEX 01 01:59:31
  TRACK 97 AUDIO
    TITLE "0:"
    INDEX 01 02:01:22
  TRACK 98 AUDIO
    TITLE "8:cjc171_02449"
    INDEX 01 02:02:19
  TRACK 99 AUDIO
    TITLE "0:"
    INDEX 01 02:03:66
  TRACK 100 AUDIO
    TITLE "9:cjc171_02450"
    INDEX 01 02:04:12
  TRACK 101 AUDIO
    TITLE "0:"
    INDEX 01 02:06:62
  TRACK 102 AUDIO
    TITLE "10:cjc171_02451"
    INDEX 01 02:07:36
  TRACK 103 AUDIO
    TITLE "0:"
    INDEX 01 02:10:15
  TRACK 104 AUDIO
    TITLE "8:cjc171_02452"
    INDEX 01 02:11:15
  TRACK 105 AUDIO
    TITLE "0:"
    INDEX 01 02:12:36
  TRACK 106 AUDIO
    TITLE "9:cjc171_02453"
    INDEX 01 02:12:57
  TRACK 107 AUDIO
    TITLE "0:"
    INDEX 01 02:15:46
  TRACK 108 AUDIO
    TITLE "10:cjc171_02454"
    INDEX 01 02:16:14
  TRACK 109 AUDIO
    TITLE "0:"
    INDEX 01 02:18:73
  TRACK 110 AUDIO
    TITLE "8:cjc171_02455"
    INDEX 01 02:19:73
  TRACK 111 AUDIO
    TITLE "0:"
    INDEX 01 02:21:23
  TRACK 112 AUDIO
    TITLE "9:cjc171_02456"
    INDEX 01 02:21:46
  TRACK 113 AUDIO
    TITLE "0:"
    INDEX 01 02:23:55
  TRACK 114 AUDIO
    TITLE "10:cjc171_02457"
    INDEX 01 02:24:29
  TRACK 115 AUDIO
    TITLE "0:"
    INDEX 01 02:26:36
  TRACK 116 AUDIO
    TITLE "8:cjc171_02458"
    INDEX 01 02:27:29
  TRACK 117 AUDIO
    TITLE "0:"
    INDEX 01 02:28:36
  TRACK 118 AUDIO
    TITLE "9:cjc171_02459"
    INDEX 01 02:28:60
  TRACK 119 AUDIO
    TITLE "0:"
    INDEX 01 02:31:25
  TRACK 120 AUDIO
    TITLE "10:cjc171_02460"
    INDEX 01 02:31:70
  TRACK 121 AUDIO
    TITLE "0:"
    INDEX 01 02:34:35
  TRACK 122 AUDIO
    TITLE "8:cjc171_02461"
    INDEX 01 02:35:33
  TRACK 123 AUDIO
    TITLE "0:"
    INDEX 01 02:36:58
  TRACK 124 AUDIO
    TITLE "9:cjc171_02462"
    INDEX 01 02:36:75
  TRACK 125 AUDIO
    TITLE "0:"
    INDEX 01 02:38:60
  TRACK 126 AUDIO
    TITLE "10:cjc171_02463"
    INDEX 01 02:39:30
  TRACK 127 AUDIO
    TITLE "0:"
    INDEX 01 02:41:14
  TRACK 128 AUDIO
    TITLE "8:cjc171_02464"
    INDEX 01 02:42:17
  TRACK 129 AUDIO
    TITLE "0:"
    INDEX 01 02:43:36
  TRACK 130 AUDIO
    TITLE "9:cjc171_02465"
    INDEX 01 02:43:67
  TRACK 131 AUDIO
    TITLE "0:"
    INDEX 01 02:45:64
  TRACK 132 AUDIO
    TITLE "10:cjc171_02466"
    INDEX 01 02:46:42
  TRACK 133 AUDIO
    TITLE "0:"
    INDEX 01 02:48:35
  TRACK 134 AUDIO
    TITLE "8:cjc171_02467"
    INDEX 01 02:49:37
  TRACK 135 AUDIO
    TITLE "0:"
    INDEX 01 02:50:46
  TRACK 136 AUDIO
    TITLE "9:cjc171_02468"
    INDEX 01 02:50:75
  TRACK 137 AUDIO
    TITLE "0:"
    INDEX 01 02:52:57
  TRACK 138 AUDIO
    TITLE "10:cjc171_02469"
    INDEX 01 02:53:36
  TRACK 139 AUDIO
    TITLE "0:"
    INDEX 01 02:55:22
  TRACK 140 AUDIO
    TITLE "8:cjc171_02470"
    INDEX 01 02:56:25
  TRACK 141 AUDIO
    TITLE "0:"
    INDEX 01 02:57:40
  TRACK 142 AUDIO
    TITLE "9:cjc171_02471"
    INDEX 01 02:57:69
  TRACK 143 AUDIO
    TITLE "0:"
    INDEX 01 03:00:72
  TRACK 144 AUDIO
    TITLE "10:cjc171_02472"
    INDEX 01 03:01:52
  TRACK 145 AUDIO
    TITLE "0:"
    INDEX 01 03:04:54
  TRACK 146 AUDIO
    TITLE "8:cjc171_02473"
    INDEX 01 03:05:57
  TRACK 147 AUDIO
    TITLE "0:"
    INDEX 01 03:06:72
  TRACK 148 AUDIO
    TITLE "9:cjc171_02474"
    INDEX 01 03:07:27
  TRACK 149 AUDIO
    TITLE "0:"
    INDEX 01 03:09:63
  TRACK 150 AUDIO
    TITLE "10:cjc171_02475"
    INDEX 01 03:10:43
  TRACK 151 AUDIO
    TITLE "0:"
    INDEX 01 03:13:04
  TRACK 152 AUDIO
    TITLE "8:cjc171_02476"
    INDEX 01 03:14:07
  TRACK 153 AUDIO
    TITLE "0:"
    INDEX 01 03:15:28
  TRACK 154 AUDIO
    TITLE "9:cjc171_02477"
    INDEX 01 03:15:60
  TRACK 155 AUDIO
    TITLE "0:"
    INDEX 01 03:18:48
  TRACK 156 AUDIO
    TITLE "10:cjc171_02478"
    INDEX 01 03:19:28
  TRACK 157 AUDIO
    TITLE "0:"
    INDEX 01 03:22:15
  TRACK 158 AUDIO
    TITLE "8:cjc171_02479"
    INDEX 01 03:23:20
  TRACK 159 AUDIO
    TITLE "0:"
    INDEX 01 03:24:41
  TRACK 160 AUDIO
    TITLE "9:cjc171_02480"
    INDEX 01 03:24:70
  TRACK 161 AUDIO
    TITLE "0:"
    INDEX 01 03:27:29
  TRACK 162 AUDIO
    TITLE "10:cjc171_02481"
    INDEX 01 03:28:07
  TRACK 163 AUDIO
    TITLE "0:"
    INDEX 01 03:30:42
  TRACK 164 AUDIO
    TITLE "8:cjc171_02482"
    INDEX 01 03:31:45
  TRACK 165 AUDIO
    TITLE "0:"
    INDEX 01 03:32:60
  TRACK 166 AUDIO
    TITLE "9:cjc171_02483"
    INDEX 01 03:33:14
  TRACK 167 AUDIO
    TITLE "0:"
    INDEX 01 03:35:25
  TRACK 168 AUDIO
    TITLE "10:cjc171_02484"
    INDEX 01 03:36:05
  TRACK 169 AUDIO
    TITLE "0:"
    INDEX 01 03:38:16
  TRACK 170 AUDIO
    TITLE "8:cjc171_02485"
    INDEX 01 03:39:21
  TRACK 171 AUDIO
    TITLE "0:"
    INDEX 01 03:40:44
  TRACK 172 AUDIO
    TITLE "9:cjc171_02486"
    INDEX 01 03:40:73
  TRACK 173 AUDIO
    TITLE "0:"
    INDEX 01 03:43:56
  TRACK 174 AUDIO
    TITLE "10:cjc171_02487"
    INDEX 01 03:44:36
  TRACK 175 AUDIO
    TITLE "0:"
    INDEX 01 03:47:18
  TRACK 176 AUDIO
    TITLE "8:cjc171_02488"
    INDEX 01 03:48:22
  TRACK 177 AUDIO
    TITLE "0:"
    INDEX 01 03:49:37
  TRACK 178 AUDIO
    TITLE "9:cjc171_02489"
    INDEX 01 03:49:66
  TRACK 179 AUDIO
    TITLE "0:"
    INDEX 01 03:51:61
  TRACK 180 AUDIO
    TITLE "10:cjc171_02490"
    INDEX 01 03:52:43
  TRACK 181 AUDIO
    TITLE "0:"
    INDEX 01 03:54:36
  TRACK 182 AUDIO
    TITLE "8:cjc171_02491"
    INDEX 01 03:55:40
  TRACK 183 AUDIO
    TITLE "0:"
    INDEX 01 03:56:61
  TRACK 184 AUDIO
    TITLE "9:cjc171_02492"
    INDEX 01 03:57:15
  TRACK 185 AUDIO
    TITLE "0:"
    INDEX 01 03:59:59
  TRACK 186 AUDIO
    TITLE "10:cjc171_02493"
    INDEX 01 04:00:35
  TRACK 187 AUDIO
    TITLE "0:"
    INDEX 01 04:03:04
  TRACK 188 AUDIO
    TITLE "8:cjc171_02494"
    INDEX 01 04:04:03
  TRACK 189 AUDIO
    TITLE "0:"
    INDEX 01 04:05:24
  TRACK 190 AUDIO
    TITLE "9:cjc171_02495"
    INDEX 01 04:05:50
  TRACK 191 AUDIO
    TITLE "0:"
    INDEX 01 04:08:50
  TRACK 192 AUDIO
    TITLE "10:cjc171_02496"
    INDEX 01 04:09:20
  TRACK 193 AUDIO
    TITLE "0:"
    INDEX 01 04:12:22
  TRACK 194 AUDIO
    TITLE "8:cjc171_02497"
    INDEX 01 04:13:18
  TRACK 195 AUDIO
    TITLE "0:"
    INDEX 01 04:14:27
  TRACK 196 AUDIO
    TITLE "9:cjc171_02498"
    INDEX 01 04:14:56
  TRACK 197 AUDIO
    TITLE "0:"
    INDEX 01 04:16:36
  TRACK 198 AUDIO
    TITLE "10:cjc171_02499"
    INDEX 01 04:17:10
  TRACK 199 AUDIO
    TITLE "0:"
    INDEX 01 04:18:66
  TRACK 200 AUDIO
    TITLE "8:cjc171_02500"
    INDEX 01 04:19:62
  TRACK 201 AUDIO
    TITLE "0:"
    INDEX 01 04:20:69
  TRACK 202 AUDIO
    TITLE "9:cjc171_02501"
    INDEX 01 04:21:19
  TRACK 203 AUDIO
    TITLE "0:"
    INDEX 01 04:23:38
  TRACK 204 AUDIO
    TITLE "10:cjc171_02502"
    INDEX 01 04:24:12
  TRACK 205 AUDIO
    TITLE "0:"
    INDEX 01 04:26:30
  TRACK 206 AUDIO
    TITLE "8:cjc171_02503"
    INDEX 01 04:27:24
  TRACK 207 AUDIO
    TITLE "0:"
    INDEX 01 04:28:51
  TRACK 208 AUDIO
    TITLE "9:cjc171_02504"
    INDEX 01 04:28:72
  TRACK 209 AUDIO
    TITLE "0:"
    INDEX 01 04:31:12
  TRACK 210 AUDIO
    TITLE "10:cjc171_02505"
    INDEX 01 04:31:59
  TRACK 211 AUDIO
    TITLE "0:"
    INDEX 01 04:33:73
  TRACK 212 AUDIO
    TITLE "8:cjc171_02506"
    INDEX 01 04:34:73
  TRACK 213 AUDIO
    TITLE "0:"
    INDEX 01 04:36:33
  TRACK 214 AUDIO
    TITLE "9:cjc171_02507"
    INDEX 01 04:36:52
  TRACK 215 AUDIO
    TITLE "0:"
    INDEX 01 04:39:23
  TRACK 216 AUDIO
    TITLE "10:cjc171_02508"
    INDEX 01 04:39:66
  TRACK 217 AUDIO
    TITLE "0:"
    INDEX 01 04:42:37
  TRACK 218 AUDIO
    TITLE "8:cjc171_02509"
    INDEX 01 04:43:33
  TRACK 219 AUDIO
    TITLE "0:"
    INDEX 01 04:44:60
  TRACK 220 AUDIO
    TITLE "9:cjc171_02510"
    INDEX 01 04:45:02
  TRACK 221 AUDIO
    TITLE "0:"
    INDEX 01 04:47:60
  TRACK 222 AUDIO
    TITLE "10:cjc171_02511"
    INDEX 01 04:48:30
  TRACK 223 AUDIO
    TITLE "0:"
    INDEX 01 04:51:13
  TRACK 224 AUDIO
    TITLE "8:cjc171_02512"
    INDEX 01 04:52:08
  TRACK 225 AUDIO
    TITLE "0:"
    INDEX 01 04:53:33
  TRACK 226 AUDIO
    TITLE "9:cjc171_02513"
    INDEX 01 04:53:55
  TRACK 227 AUDIO
    TITLE "0:"
    INDEX 01 04:55:59
  TRACK 228 AUDIO
    TITLE "10:cjc171_02514"
    INDEX 01 04:56:29
  TRACK 229 AUDIO
    TITLE "0:"
    INDEX 01 04:58:34
  TRACK 230 AUDIO
    TITLE "8:cjc171_02515"
    INDEX 01 04:59:30
  TRACK 231 AUDIO
    TITLE "0:"
    INDEX 01 05:00:41
  TRACK 232 AUDIO
    TITLE "9:cjc171_02516"
    INDEX 01 05:00:62
  TRACK 233 AUDIO
    TITLE "0:"
    INDEX 01 05:02:57
  TRACK 234 AUDIO
    TITLE "10:cjc171_02517"
    INDEX 01 05:03:33
  TRACK 235 AUDIO
    TITLE "0:"
    INDEX 01 05:05:30
  TRACK 236 AUDIO
    TITLE "8:cjc171_02518"
    INDEX 01 05:06:28
  TRACK 237 AUDIO
    TITLE "0:"
    INDEX 01 05:07:41
  TRACK 238 AUDIO
    TITLE "9:cjc171_02519"
    INDEX 01 05:07:63
  TRACK 239 AUDIO
    TITLE "0:"
    INDEX 01 05:10:04
  TRACK 240 AUDIO
    TITLE "10:cjc171_02520"
    INDEX 01 05:10:49
  TRACK 241 AUDIO
    TITLE "0:"
    INDEX 01 05:12:68
  TRACK 242 AUDIO
    TITLE "8:cjc171_02521"
    INDEX 01 05:13:67
  TRACK 243 AUDIO
    TITLE "0:"
    INDEX 01 05:15:13
  TRACK 244 AUDIO
    TITLE "9:cjc171_02522"
    INDEX 01 05:15:42
  TRACK 245 AUDIO
    TITLE "0:"
    INDEX 01 05:17:61
  TRACK 246 AUDIO
    TITLE "10:cjc171_02523"
    INDEX 01 05:18:41
  TRACK 247 AUDIO
    TITLE "0:"
    INDEX 01 05:20:57
  TRACK 248 AUDIO
    TITLE "8:cjc171_02524"
    INDEX 01 05:21:63
  TRACK 249 AUDIO
    TITLE "0:"
    INDEX 01 05:23:16
  TRACK 250 AUDIO
    TITLE "9:cjc171_02525"
    INDEX 01 05:23:44
  TRACK 251 AUDIO
    TITLE "0:"
    INDEX 01 05:27:40
  TRACK 252 AUDIO
    TITLE "10:cjc171_02526"
    INDEX 01 05:28:18
  TRACK 253 AUDIO
    TITLE "0:"
    INDEX 01 05:32:13
  TRACK 254 AUDIO
    TITLE "8:cjc171_02527"
    INDEX 01 05:33:15
  TRACK 255 AUDIO
    TITLE "0:"
    INDEX 01 05:34:30
  TRACK 256 AUDIO
    TITLE "9:cjc171_02528"
    INDEX 01 05:34:59
  TRACK 257 AUDIO
    TITLE "0:"
    INDEX 01 05:36:48
  TRACK 258 AUDIO
    TITLE "10:cjc171_02529"
    INDEX 01 05:37:26
  TRACK 259 AUDIO
    TITLE "0:"
    INDEX 01 05:39:15
  TRACK 260 AUDIO
    TITLE "8:cjc171_02530"
    INDEX 01 05:40:19
  TRACK 261 AUDIO
    TITLE "0:"
    INDEX 01 05:41:30
  TRACK 262 AUDIO
    TITLE "9:cjc171_02531"
    INDEX 01 05:41:59
  TRACK 263 AUDIO
    TITLE "0:"
    INDEX 01 05:43:54
  TRACK 264 AUDIO
    TITLE "10:cjc171_02532"
    INDEX 01 05:44:34
  TRACK 265 AUDIO
    TITLE "0:"
    INDEX 01 05:46:29
  TRACK 266 AUDIO
    TITLE "8:cjc171_02533"
    INDEX 01 05:47:35
  TRACK 267 AUDIO
    TITLE "0:"
    INDEX 01 05:48:46
  TRACK 268 AUDIO
    TITLE "9:cjc171_02534"
    INDEX 01 05:49:02
  TRACK 269 AUDIO
    TITLE "0:"
    INDEX 01 05:52:32
  TRACK 270 AUDIO
    TITLE "10:cjc171_02535"
    INDEX 01 05:53:12
  TRACK 271 AUDIO
    TITLE "0:"
    INDEX 01 05:56:43
  TRACK 272 AUDIO
    TITLE "8:cjc171_02536"
    INDEX 01 05:57:49
  TRACK 273 AUDIO
    TITLE "0:"
    INDEX 01 05:58:54
  TRACK 274 AUDIO
    TITLE "9:cjc171_02537"
    INDEX 01 05:59:06
  TRACK 275 AUDIO
    TITLE "0:"
    INDEX 01 06:01:09
  TRACK 276 AUDIO
    TITLE "10:cjc171_02538"
    INDEX 01 06:01:62
  TRACK 277 AUDIO
    TITLE "0:"
    INDEX 01 06:03:63
  TRACK 278 AUDIO
    TITLE "8:cjc171_02539"
    INDEX 01 06:04:66
  TRACK 279 AUDIO
    TITLE "0:"
    INDEX 01 06:06:06
  TRACK 280 AUDIO
    TITLE "9:cjc171_02540"
    INDEX 01 06:06:34
  TRACK 281 AUDIO
    TITLE "0:"
    INDEX 01 06:08:19
  TRACK 282 AUDIO
    TITLE "10:cjc171_02541"
    INDEX 01 06:08:66
  TRACK 283 AUDIO
    TITLE "0:"
    INDEX 01 06:10:51
  TRACK 284 AUDIO
    TITLE "8:cjc171_02542"
    INDEX 01 06:11:49
  TRACK 285 AUDIO
    TITLE "0:"
    INDEX 01 06:13:10
  TRACK 286 AUDIO
    TITLE "9:cjc171_02543"
    INDEX 01 06:13:40
  TRACK 287 AUDIO
    TITLE "0:"
    INDEX 01 06:15:54
  TRACK 288 AUDIO
    TITLE "10:cjc171_02544"
    INDEX 01 06:16:34
  TRACK 289 AUDIO
    TITLE "0:"
    INDEX 01 06:18:51
  TRACK 290 AUDIO
    TITLE "8:cjc171_02545"
    INDEX 01 06:19:54
  TRACK 291 AUDIO
    TITLE "0:"
    INDEX 01 06:21:02
  TRACK 292 AUDIO
    TITLE "9:cjc171_02546"
    INDEX 01 06:21:33
  TRACK 293 AUDIO
    TITLE "0:"
    INDEX 01 06:23:72
  TRACK 294 AUDIO
    TITLE "10:cjc171_02547"
    INDEX 01 06:24:48
  TRACK 295 AUDIO
    TITLE "0:"
    INDEX 01 06:27:13
  TRACK 296 AUDIO
    TITLE "8:cjc171_02548"
    INDEX 01 06:28:12
  TRACK 297 AUDIO
    TITLE "0:"
    INDEX 01 06:29:25
  TRACK 298 AUDIO
    TITLE "9:cjc171_02549"
    INDEX 01 06:29:53
  TRACK 299 AUDIO
    TITLE "0:"
    INDEX 01 06:31:22
  TRACK 300 AUDIO
    TITLE "10:cjc171_02550"
    INDEX 01 06:31:75
  TRACK 301 AUDIO
    TITLE "0:"
    INDEX 01 06:33:45
  TRACK 302 AUDIO
    TITLE "8:cjc171_02551"
    INDEX 01 06:34:46
  TRACK 303 AUDIO
    TITLE "0:"
    INDEX 01 06:35:65
  TRACK 304 AUDIO
    TITLE "9:cjc171_02552"
    INDEX 01 06:36:10
  TRACK 305 AUDIO
    TITLE "0:"
    INDEX 01 06:38:40
  TRACK 306 AUDIO
    TITLE "10:cjc171_02553"
    INDEX 01 06:39:10
  TRACK 307 AUDIO
    TITLE "0:"
    INDEX 01 06:41:40
  TRACK 308 AUDIO
    TITLE "8:cjc171_02554"
    INDEX 01 06:42:34
  TRACK 309 AUDIO
    TITLE "0:"
    INDEX 01 06:43:53
  TRACK 310 AUDIO
    TITLE "9:cjc171_02555"
    INDEX 01 06:44:01
  TRACK 311 AUDIO
    TITLE "0:"
    INDEX 01 06:46:10
  TRACK 312 AUDIO
    TITLE "10:cjc171_02556"
    INDEX 01 06:46:59
  TRACK 313 AUDIO
    TITLE "0:"
    INDEX 01 06:48:70
  TRACK 314 AUDIO
    TITLE "8:cjc171_02557"
    INDEX 01 06:49:67
  TRACK 315 AUDIO
    TITLE "0:"
    INDEX 01 06:51:23
  TRACK 316 AUDIO
    TITLE "9:cjc171_02558"
    INDEX 01 06:51:44
  TRACK 317 AUDIO
    TITLE "0:"
    INDEX 01 06:53:39
  TRACK 318 AUDIO
    TITLE "10:cjc171_02559"
    INDEX 01 06:54:09
  TRACK 319 AUDIO
    TITLE "0:"
    INDEX 01 06:56:04
  TRACK 320 AUDIO
    TITLE "8:cjc171_02560"
    INDEX 01 06:56:75
  TRACK 321 AUDIO
    TITLE "0:"
    INDEX 01 06:58:19
  TRACK 322 AUDIO
    TITLE "9:cjc171_02561"
    INDEX 01 06:58:50
  TRACK 323 AUDIO
    TITLE "0:"
    INDEX 01 07:00:73
  TRACK 324 AUDIO
    TITLE "10:cjc171_02562"
    INDEX 01 07:01:47
  TRACK 325 AUDIO
    TITLE "0:"
    INDEX 01 07:03:71
  TRACK 326 AUDIO
    TITLE "8:cjc171_02563"
    INDEX 01 07:04:65
  TRACK 327 AUDIO
    TITLE "0:"
    INDEX 01 07:06:09
  TRACK 328 AUDIO
    TITLE "9:cjc171_02564"
    INDEX 01 07:06:30
  TRACK 329 AUDIO
    TITLE "0:"
    INDEX 01 07:08:21
  TRACK 330 AUDIO
    TITLE "10:cjc171_02565"
    INDEX 01 07:08:72
  TRACK 331 AUDIO
    TITLE "0:"
    INDEX 01 07:10:65
  TRACK 332 AUDIO
    TITLE "8:cjc171_02566"
    INDEX 01 07:11:65
  TRACK 333 AUDIO
    TITLE "0:"
    INDEX 01 07:12:74
  TRACK 334 AUDIO
    TITLE "9:cjc171_02567"
    INDEX 01 07:13:22
  TRACK 335 AUDIO
    TITLE "0:"
    INDEX 01 07:15:51
  TRACK 336 AUDIO
    TITLE "10:cjc171_02568"
    INDEX 01 07:16:31
  TRACK 337 AUDIO
    TITLE "0:"
    INDEX 01 07:18:57
  TRACK 338 AUDIO
    TITLE "8:cjc171_02569"
    INDEX 01 07:19:56
  TRACK 339 AUDIO
    TITLE "0:"
    INDEX 01 07:20:54
  TRACK 340 AUDIO
    TITLE "9:cjc171_02570"
    INDEX 01 07:20:73
  TRACK 341 AUDIO
    TITLE "0:"
    INDEX 01 07:23:11
  TRACK 342 AUDIO
    TITLE "10:cjc171_02571"
    INDEX 01 07:23:56
  TRACK 343 AUDIO
    TITLE "0:"
    INDEX 01 07:25:69
  TRACK 344 AUDIO
    TITLE "8:cjc171_02572"
    INDEX 01 07:26:62
  TRACK 345 AUDIO
    TITLE "0:"
    INDEX 01 07:27:72
  TRACK 346 AUDIO
    TITLE "9:cjc171_02573"
    INDEX 01 07:28:16
  TRACK 347 AUDIO
    TITLE "0:"
    INDEX 01 07:30:13
  TRACK 348 AUDIO
    TITLE "10:cjc171_02574"
    INDEX 01 07:30:62
  TRACK 349 AUDIO
    TITLE "0:"
    INDEX 01 07:32:55
  TRACK 350 AUDIO
    TITLE "8:cjc171_02575"
    INDEX 01 07:33:53
  TRACK 351 AUDIO
    TITLE "0:"
    INDEX 01 07:35:06
  TRACK 352 AUDIO
    TITLE "9:cjc171_02576"
    INDEX 01 07:35:28
  TRACK 353 AUDIO
    TITLE "0:"
    INDEX 01 07:37:64
  TRACK 354 AUDIO
    TITLE "10:cjc171_02577"
    INDEX 01 07:38:36
  TRACK 355 AUDIO
    TITLE "0:"
    INDEX 01 07:40:74
  TRACK 356 AUDIO
    TITLE "8:cjc171_02578"
    INDEX 01 07:41:72
  TRACK 357 AUDIO
    TITLE "0:"
    INDEX 01 07:43:12
  TRACK 358 AUDIO
    TITLE "9:cjc171_02579"
    INDEX 01 07:43:29
  TRACK 359 AUDIO
    TITLE "0:"
    INDEX 01 07:45:56
  TRACK 360 AUDIO
    TITLE "10:cjc171_02580"
    INDEX 01 07:46:26
  TRACK 361 AUDIO
    TITLE "0:"
    INDEX 01 07:48:50
  TRACK 362 AUDIO
    TITLE "8:cjc171_02581"
    INDEX 01 07:49:50
  TRACK 363 AUDIO
    TITLE "0:"
    INDEX 01 07:50:67
  TRACK 364 AUDIO
    TITLE "9:cjc171_02582"
    INDEX 01 07:51:19
  TRACK 365 AUDIO
    TITLE "0:"
    INDEX 01 07:53:63
  TRACK 366 AUDIO
    TITLE "10:cjc171_02583"
    INDEX 01 07:54:43
  TRACK 367 AUDIO
    TITLE "0:"
    INDEX 01 07:57:10
  TRACK 368 AUDIO
    TITLE "8:cjc171_02584"
    INDEX 01 07:58:15
  TRACK 369 AUDIO
    TITLE "0:"
    INDEX 01 07:59:36
  TRACK 370 AUDIO
    TITLE "9:cjc171_02585"
    INDEX 01 07:59:68
  TRACK 371 AUDIO
    TITLE "0:"
    INDEX 01 08:02:33
  TRACK 372 AUDIO
    TITLE "10:cjc171_02586"
    INDEX 01 08:03:13
  TRACK 373 AUDIO
    TITLE "0:"
    INDEX 01 08:05:53
  TRACK 374 AUDIO
    TITLE "8:cjc171_02587"
    INDEX 01 08:06:58
  TRACK 375 AUDIO
    TITLE "0:"
    INDEX 01 08:07:69
  TRACK 376 AUDIO
    TITLE "9:cjc171_02588"
    INDEX 01 08:08:24
  TRACK 377 AUDIO
    TITLE "0:"
    INDEX 01 08:11:04
  TRACK 378 AUDIO
    TITLE "10:cjc171_02589"
    INDEX 01 08:11:59
  TRACK 379 AUDIO
    TITLE "0:"
    INDEX 01 08:14:40
  TRACK 380 AUDIO
    TITLE "8:cjc171_02590"
    INDEX 01 08:15:47
  TRACK 381 AUDIO
    TITLE "0:"
    INDEX 01 08:16:54
  TRACK 382 AUDIO
    TITLE "9:cjc171_02591"
    INDEX 01 08:17:11
  TRACK 383 AUDIO
    TITLE "0:"
    INDEX 01 08:19:12
  TRACK 384 AUDIO
    TITLE "10:cjc171_02592"
    INDEX 01 08:19:70
  TRACK 385 AUDIO
    TITLE "0:"
    INDEX 01 08:21:73
  TRACK 386 AUDIO
    TITLE "8:cjc171_02593"
    INDEX 01 08:23:04
  TRACK 387 AUDIO
    TITLE "0:"
    INDEX 01 08:24:36
  TRACK 388 AUDIO
    TITLE "9:cjc171_02594"
    INDEX 01 08:24:68
  TRACK 389 AUDIO
    TITLE "0:"
    INDEX 01 08:26:74
  TRACK 390 AUDIO
    TITLE "10:cjc171_02595"
    INDEX 01 08:27:52
  TRACK 391 AUDIO
    TITLE "0:"
    INDEX 01 08:29:59
  TRACK 392 AUDIO
    TITLE "8:cjc171_02596"
    INDEX 01 08:30:62
  TRACK 393 AUDIO
    TITLE "0:"
    INDEX 01 08:32:24
  TRACK 394 AUDIO
    TITLE "9:cjc171_02597"
    INDEX 01 08:32:55
  TRACK 395 AUDIO
    TITLE "0:"
    INDEX 01 08:35:03
  TRACK 396 AUDIO
    TITLE "10:cjc171_02598"
    INDEX 01 08:35:58
  TRACK 397 AUDIO
    TITLE "0:"
    INDEX 01 08:38:07
  TRACK 398 AUDIO
    TITLE "8:cjc171_02599"
    INDEX 01 08:39:10
  TRACK 399 AUDIO
    TITLE "0:"
    INDEX 01 08:40:25
  TRACK 400 AUDIO
    TITLE "9:cjc171_02600"
    INDEX 01 08:40:55
  TRACK 401 AUDIO
    TITLE "0:"
    INDEX 01 08:42:60
  TRACK 402 AUDIO
    TITLE "10:cjc171_02601"
    INDEX 01 08:43:39
  TRACK 403 AUDIO
    TITLE "0:"
    INDEX 01 08:45:44
  TRACK 404 AUDIO
    TITLE "8:cjc171_02602"
    INDEX 01 08:46:50
  TRACK 405 AUDIO
    TITLE "0:"
    INDEX 01 08:47:65
  TRACK 406 AUDIO
    TITLE "9:cjc171_02603"
    INDEX 01 08:48:19
  TRACK 407 AUDIO
    TITLE "0:"
    INDEX 01 08:50:28
  TRACK 408 AUDIO
    TITLE "10:cjc171_02604"
    INDEX 01 08:51:08
  TRACK 409 AUDIO
    TITLE "0:"
    INDEX 01 08:53:14
  TRACK 410 AUDIO
    TITLE "8:cjc171_02605"
    INDEX 01 08:54:20
  TRACK 411 AUDIO
    TITLE "0:"
    INDEX 01 08:55:27
  TRACK 412 AUDIO
    TITLE "9:cjc171_02606"
    INDEX 01 08:55:56
  TRACK 413 AUDIO
    TITLE "0:"
    INDEX 01 08:57:53
  TRACK 414 AUDIO
    TITLE "10:cjc171_02607"
    INDEX 01 08:58:33
  TRACK 415 AUDIO
    TITLE "0:"
    INDEX 01 09:00:28
  TRACK 416 AUDIO
    TITLE "8:cjc171_02608"
    INDEX 01 09:01:34
  TRACK 417 AUDIO
    TITLE "0:"
    INDEX 01 09:02:39
  TRACK 418 AUDIO
    TITLE "9:cjc171_02609"
    INDEX 01 09:02:70
  TRACK 419 AUDIO
    TITLE "0:"
    INDEX 01 09:04:51
  TRACK 420 AUDIO
    TITLE "10:cjc171_02610"
    INDEX 01 09:05:33
  TRACK 421 AUDIO
    TITLE "0:"
    INDEX 01 09:07:15
  TRACK 422 AUDIO
    TITLE "8:cjc171_02611"
    INDEX 01 09:08:14
  TRACK 423 AUDIO
    TITLE "0:"
    INDEX 01 09:09:55
  TRACK 424 AUDIO
    TITLE "9:cjc171_02612"
    INDEX 01 09:10:07
  TRACK 425 AUDIO
    TITLE "0:"
    INDEX 01 09:12:20
  TRACK 426 AUDIO
    TITLE "10:cjc171_02613"
    INDEX 01 09:12:65
  TRACK 427 AUDIO
    TITLE "0:"
    INDEX 01 09:15:04
  TRACK 428 AUDIO
    TITLE "8:cjc171_02614"
    INDEX 01 09:15:75
  TRACK 429 AUDIO
    TITLE "0:"
    INDEX 01 09:17:27
  TRACK 430 AUDIO
    TITLE "9:cjc171_02615"
    INDEX 01 09:17:44
  TRACK 431 AUDIO
    TITLE "0:"
    INDEX 01 09:19:49
  TRACK 432 AUDIO
    TITLE "10:cjc171_02616"
    INDEX 01 09:20:19
  TRACK 433 AUDIO
    TITLE "0:"
    INDEX 01 09:22:24
  TRACK 434 AUDIO
    TITLE "8:cjc171_02617"
    INDEX 01 09:23:19
  TRACK 435 AUDIO
    TITLE "0:"
    INDEX 01 09:24:17
  TRACK 436 AUDIO
    TITLE "9:cjc171_02618"
    INDEX 01 09:24:38
  TRACK 437 AUDIO
    TITLE "0:"
    INDEX 01 09:26:30
  TRACK 438 AUDIO
    TITLE "10:cjc171_02619"
    INDEX 01 09:26:75
  TRACK 439 AUDIO
    TITLE "0:"
    INDEX 01 09:28:66
  TRACK 440 AUDIO
    TITLE "8:cjc171_02620"
    INDEX 01 09:29:61
  TRACK 441 AUDIO
    TITLE "0:"
    INDEX 01 09:31:11
  TRACK 442 AUDIO
    TITLE "9:cjc171_02621"
    INDEX 01 09:31:31
  TRACK 443 AUDIO
    TITLE "0:"
    INDEX 01 09:33:73
  TRACK 444 AUDIO
    TITLE "10:cjc171_02622"
    INDEX 01 09:34:45
  TRACK 445 AUDIO
    TITLE "0:"
    INDEX 01 09:37:14
  TRACK 446 AUDIO
    TITLE "8:cjc171_02623"
    INDEX 01 09:38:09
  TRACK 447 AUDIO
    TITLE "0:"
    INDEX 01 09:39:07
  TRACK 448 AUDIO
    TITLE "9:cjc171_02624"
    INDEX 01 09:39:32
  TRACK 449 AUDIO
    TITLE "0:"
    INDEX 01 09:42:01
  TRACK 450 AUDIO
    TITLE "10:cjc171_02625"
    INDEX 01 09:42:52
  TRACK 451 AUDIO
    TITLE "0:"
    INDEX 01 09:45:21
  TRACK 452 AUDIO
    TITLE "8:cjc171_02626"
    INDEX 01 09:46:19
  TRACK 453 AUDIO
    TITLE "0:"
    INDEX 01 09:47:43
  TRACK 454 AUDIO
    TITLE "9:cjc171_02627"
    INDEX 01 09:47:65
  TRACK 455 AUDIO
    TITLE "0:"
    INDEX 01 09:51:08
  TRACK 456 AUDIO
    TITLE "10:cjc171_02628"
    INDEX 01 09:51:53
  TRACK 457 AUDIO
    TITLE "0:"
    INDEX 01 09:54:69
  TRACK 458 AUDIO
    TITLE "8:cjc171_02629"
    INDEX 01 09:55:64
  TRACK 459 AUDIO
    TITLE "0:"
    INDEX 01 09:56:64
  TRACK 460 AUDIO
    TITLE "9:cjc171_02630"
    INDEX 01 09:57:10
  TRACK 461 AUDIO
    TITLE "0:"
    INDEX 01 09:58:73
  TRACK 462 AUDIO
    TITLE "10:cjc171_02631"
    INDEX 01 09:59:45
  TRACK 463 AUDIO
    TITLE "0:"
    INDEX 01 10:01:34
  TRACK 464 AUDIO
    TITLE "8:cjc171_02632"
    INDEX 01 10:02:29
  TRACK 465 AUDIO
    TITLE "0:"
    INDEX 01 10:03:48
  TRACK 466 AUDIO
    TITLE "9:cjc171_02633"
    INDEX 01 10:04:07
  TRACK 467 AUDIO
    TITLE "0:"
    INDEX 01 10:06:07
  TRACK 468 AUDIO
    TITLE "10:cjc171_02634"
    INDEX 01 10:06:60
  TRACK 469 AUDIO
    TITLE "0:"
    INDEX 01 10:08:63
  TRACK 470 AUDIO
    TITLE "8:cjc171_02635"
    INDEX 01 10:09:57
  TRACK 471 AUDIO
    TITLE "0:"
    INDEX 01 10:10:58
  TRACK 472 AUDIO
    TITLE "9:cjc171_02636"
    INDEX 01 10:11:09
  TRACK 473 AUDIO
    TITLE "0:"
    INDEX 01 10:13:68
  TRACK 474 AUDIO
    TITLE "10:cjc171_02637"
    INDEX 01 10:14:36
  TRACK 475 AUDIO
    TITLE "0:"
    INDEX 01 10:17:23
  TRACK 476 AUDIO
    TITLE "8:cjc171_02638"
    INDEX 01 10:18:19
  TRACK 477 AUDIO
    TITLE "0:"
    INDEX 01 10:19:39
  TRACK 478 AUDIO
    TITLE "9:cjc171_02639"
    INDEX 01 10:19:63
  TRACK 479 AUDIO
    TITLE "0:"
    INDEX 01 10:21:52
  TRACK 480 AUDIO
    TITLE "10:cjc171_02640"
    INDEX 01 10:22:22
  TRACK 481 AUDIO
    TITLE "0:"
    INDEX 01 10:24:15
  TRACK 482 AUDIO
    TITLE "8:cjc171_02641"
    INDEX 01 10:25:15
  TRACK 483 AUDIO
    TITLE "0:"
    INDEX 01 10:26:28
  TRACK 484 AUDIO
    TITLE "9:cjc171_02642"
    INDEX 01 10:26:57
  TRACK 485 AUDIO
    TITLE "0:"
    INDEX 01 10:29:38
  TRACK 486 AUDIO
    TITLE "10:cjc171_02643"
    INDEX 01 10:30:18
  TRACK 487 AUDIO
    TITLE "0:"
    INDEX 01 10:32:73
  TRACK 488 AUDIO
    TITLE "8:cjc171_02644"
    INDEX 01 10:34:02
  TRACK 489 AUDIO
    TITLE "0:"
    INDEX 01 10:35:25
  TRACK 490 AUDIO
    TITLE "9:cjc171_02645"
    INDEX 01 10:35:56
  TRACK 491 AUDIO
    TITLE "0:"
    INDEX 01 10:38:29
  TRACK 492 AUDIO
    TITLE "10:cjc171_02646"
    INDEX 01 10:39:07
  TRACK 493 AUDIO
    TITLE "0:"
    INDEX 01 10:41:57
  TRACK 494 AUDIO
    TITLE "8:cjc171_02647"
    INDEX 01 10:42:60
  TRACK 495 AUDIO
    TITLE "0:"
    INDEX 01 10:43:71
  TRACK 496 AUDIO
    TITLE "9:cjc171_02648"
    INDEX 01 10:44:24
  TRACK 497 AUDIO
    TITLE "0:"
    INDEX 01 10:46:38
  TRACK 498 AUDIO
    TITLE "10:cjc171_02649"
    INDEX 01 10:47:18
  TRACK 499 AUDIO
    TITLE "0:"
    INDEX 01 10:49:31
  TRACK 500 AUDIO
    TITLE "8:cjc171_02650"
    INDEX 01 10:50:34
  TRACK 501 AUDIO
    TITLE "0:"
    INDEX 01 10:51:57
  TRACK 502 AUDIO
    TITLE "9:cjc171_02651"
    INDEX 01 10:51:75
  TRACK 503 AUDIO
    TITLE "0:"
    INDEX 01 10:53:62
  TRACK 504 AUDIO
    TITLE "10:cjc171_02652"
    INDEX 01 10:54:34
  TRACK 505 AUDIO
    TITLE "0:"
    INDEX 01 10:56:23
  TRACK 506 AUDIO
    TITLE "8:cjc171_02653"
    INDEX 01 10:57:24
  TRACK 507 AUDIO
    TITLE "0:"
    INDEX 01 10:58:47
  TRACK 508 AUDIO
    TITLE "9:cjc171_02654"
    INDEX 01 10:58:75
  TRACK 509 AUDIO
    TITLE "0:"
    INDEX 01 11:01:40
  TRACK 510 AUDIO
    TITLE "10:cjc171_02655"
    INDEX 01 11:02:20
  TRACK 511 AUDIO
    TITLE "0:"
    INDEX 01 11:04:60
  TRACK 512 AUDIO
    TITLE "8:cjc171_02656"
    INDEX 01 11:05:65
  TRACK 513 AUDIO
    TITLE "0:"
    INDEX 01 11:07:23
  TRACK 514 AUDIO
    TITLE "9:cjc171_02657"
    INDEX 01 11:07:52
  TRACK 515 AUDIO
    TITLE "0:"
    INDEX 01 11:09:71
  TRACK 516 AUDIO
    TITLE "10:cjc171_02658"
    INDEX 01 11:10:55
  TRACK 517 AUDIO
    TITLE "0:"
    INDEX 01 11:12:71
  TRACK 518 AUDIO
    TITLE "8:cjc171_02659"
    INDEX 01 11:14:03
  TRACK 519 AUDIO
    TITLE "0:"
    INDEX 01 11:15:24
  TRACK 520 AUDIO
    TITLE "9:cjc171_02660"
    INDEX 01 11:15:54
  TRACK 521 AUDIO
    TITLE "0:"
    INDEX 01 11:18:11
  TRACK 522 AUDIO
    TITLE "10:cjc171_02661"
    INDEX 01 11:18:68
  TRACK 523 AUDIO
    TITLE "0:"
    INDEX 01 11:21:25
  TRACK 524 AUDIO
    TITLE "8:cjc171_02662"
    INDEX 01 11:22:30
  TRACK 525 AUDIO
    TITLE "0:"
    INDEX 01 11:23:47
  TRACK 526 AUDIO
    TITLE "9:cjc171_02663"
    INDEX 01 11:24:02
  TRACK 527 AUDIO
    TITLE "0:"
    INDEX 01 11:26:46
  TRACK 528 AUDIO
    TITLE "10:cjc171_02664"
    INDEX 01 11:27:28
  TRACK 529 AUDIO
    TITLE "0:"
    INDEX 01 11:29:73
  TRACK 530 AUDIO
    TITLE "8:cjc171_02665"
    INDEX 01 11:31:02
  TRACK 531 AUDIO
    TITLE "0:"
    INDEX 01 11:32:31
  TRACK 532 AUDIO
    TITLE "9:cjc171_02666"
    INDEX 01 11:32:60
  TRACK 533 AUDIO
    TITLE "0:"
    INDEX 01 11:34:51
  TRACK 534 AUDIO
    TITLE "10:cjc171_02667"
    INDEX 01 11:35:33
  TRACK 535 AUDIO
    TITLE "0:"
    INDEX 01 11:37:24
  TRACK 536 AUDIO
    TITLE "8:cjc171_02668"
    INDEX 01 11:38:29
  TRACK 537 AUDIO
    TITLE "0:"
    INDEX 01 11:39:50
  TRACK 538 AUDIO
    TITLE "9:cjc171_02669"
    INDEX 01 11:40:05
  TRACK 539 AUDIO
    TITLE "0:"
    INDEX 01 11:42:43
  TRACK 540 AUDIO
    TITLE "10:cjc171_02670"
    INDEX 01 11:43:25
  TRACK 541 AUDIO
    TITLE "0:"
    INDEX 01 11:45:63
  TRACK 542 AUDIO
    TITLE "8:cjc171_02671"
    INDEX 01 11:46:64
  TRACK 543 AUDIO
    TITLE "0:"
    INDEX 01 11:48:06
  TRACK 544 AUDIO
    TITLE "9:cjc171_02672"
    INDEX 01 11:48:24
  TRACK 545 AUDIO
    TITLE "0:"
    INDEX 01 11:50:34
  TRACK 546 AUDIO
    TITLE "10:cjc171_02673"
    INDEX 01 11:51:04
  TRACK 547 AUDIO
    TITLE "0:"
    INDEX 01 11:53:17
  TRACK 548 AUDIO
    TITLE "8:cjc171_02674"
    INDEX 01 11:54:15
  TRACK 549 AUDIO
    TITLE "0:"
    INDEX 01 11:55:43
  TRACK 550 AUDIO
    TITLE "9:cjc171_02675"
    INDEX 01 11:55:61
  TRACK 551 AUDIO
    TITLE "0:"
    INDEX 01 11:58:03
  TRACK 552 AUDIO
    TITLE "10:cjc171_02676"
    INDEX 01 11:58:46
  TRACK 553 AUDIO
    TITLE "0:"
    INDEX 01 12:00:60
  TRACK 554 AUDIO
    TITLE "8:cjc171_02677"
    INDEX 01 12:01:54
  TRACK 555 AUDIO
    TITLE "0:"
    INDEX 01 12:02:71
  TRACK 556 AUDIO
    TITLE "9:cjc171_02678"
    INDEX 01 12:03:19
  TRACK 557 AUDIO
    TITLE "0:"
    INDEX 01 12:05:40
  TRACK 558 AUDIO
    TITLE "10:cjc171_02679"
    INDEX 01 12:06:12
  TRACK 559 AUDIO
    TITLE "0:"
    INDEX 01 12:08:34
  TRACK 560 AUDIO
    TITLE "8:cjc171_02680"
    INDEX 01 12:09:30
  TRACK 561 AUDIO
    TITLE "0:"
    INDEX 01 12:10:33
  TRACK 562 AUDIO
    TITLE "9:cjc171_02681"
    INDEX 01 12:10:53
  TRACK 563 AUDIO
    TITLE "0:"
    INDEX 01 12:12:36
  TRACK 564 AUDIO
    TITLE "10:cjc171_02682"
    INDEX 01 12:13:04
  TRACK 565 AUDIO
    TITLE "0:"
    INDEX 01 12:14:62
  TRACK 566 AUDIO
    TITLE "8:cjc171_02683"
    INDEX 01 12:15:58
  TRACK 567 AUDIO
    TITLE "0:"
    INDEX 01 12:17:21
  TRACK 568 AUDIO
    TITLE "9:cjc171_02684"
    INDEX 01 12:17:43
  TRACK 569 AUDIO
    TITLE "0:"
    INDEX 01 12:21:21
  TRACK 570 AUDIO
    TITLE "10:cjc171_02685"
    INDEX 01 12:21:66
  TRACK 571 AUDIO
    TITLE "0:"
    INDEX 01 12:25:46
  TRACK 572 AUDIO
    TITLE "8:cjc171_02686"
    INDEX 01 12:26:42
  TRACK 573 AUDIO
    TITLE "0:"
    INDEX 01 12:27:49
  TRACK 574 AUDIO
    TITLE "9:cjc171_02687"
    INDEX 01 12:28:04
  TRACK 575 AUDIO
    TITLE "0:"
    INDEX 01 12:30:07
  TRACK 576 AUDIO
    TITLE "10:cjc171_02688"
    INDEX 01 12:30:54
  TRACK 577 AUDIO
    TITLE "0:"
    INDEX 01 12:32:56
  TRACK 578 AUDIO
    TITLE "8:cjc171_02689"
    INDEX 01 12:33:66
  TRACK 579 AUDIO
    TITLE "0:"
    INDEX 01 12:35:02
  TRACK 580 AUDIO
    TITLE "9:cjc171_02690"
    INDEX 01 12:35:21
  TRACK 581 AUDIO
    TITLE "0:"
    INDEX 01 12:37:42
  TRACK 582 AUDIO
    TITLE "10:cjc171_02691"
    INDEX 01 12:38:12
  TRACK 583 AUDIO
    TITLE "0:"
    INDEX 01 12:40:32
  TRACK 584 AUDIO
    TITLE "8:cjc171_02692"
    INDEX 01 12:41:28
  TRACK 585 AUDIO
    TITLE "0:"
    INDEX 01 12:42:33
  TRACK 586 AUDIO
    TITLE "9:cjc171_02693"
    INDEX 01 12:42:59
  TRACK 587 AUDIO
    TITLE "0:"
    INDEX 01 12:45:02
  TRACK 588 AUDIO
    TITLE "10:cjc171_02694"
    INDEX 01 12:45:57
  TRACK 589 AUDIO
    TITLE "0:"
    INDEX 01 12:48:01
  TRACK 590 AUDIO
    TITLE "8:cjc171_02695"
    INDEX 01 12:48:73
  TRACK 591 AUDIO
    TITLE "0:"
    INDEX 01 12:50:13
  TRACK 592 AUDIO
    TITLE "9:cjc171_02696"
    INDEX 01 12:50:35
  TRACK 593 AUDIO
    TITLE "0:"
    INDEX 01 12:52:02
  TRACK 594 AUDIO
    TITLE "10:cjc171_02697"
    INDEX 01 12:52:53
  TRACK 595 AUDIO
    TITLE "0:"
    INDEX 01 12:54:19
  TRACK 596 AUDIO
    TITLE "8:cjc171_02698"
    INDEX 01 12:55:24
  TRACK 597 AUDIO
    TITLE "0:"
    INDEX 01 12:56:47
  TRACK 598 AUDIO
    TITLE "9:cjc171_02699"
    INDEX 01 12:56:73
  TRACK 599 AUDIO
    TITLE "0:"
    INDEX 01 12:58:62
  TRACK 600 AUDIO
    TITLE "10:cjc171_02700"
    INDEX 01 12:59:32
  TRACK 601 AUDIO
    TITLE "0:"
    INDEX 01 13:01:25
